<svg width="262" height="219" viewBox="0 0 262 219" fill="none" xmlns="http://www.w3.org/2000/svg">
<rect width="262" height="219" rx="50" fill="#0A0A0A"/>
<path d="M66 176V44H88.5935V98.4629H134.459V44H157V176H134.459V121.473H88.5935V176H66Z" fill="white"/>
<path d="M184.045 174.182C181.045 174.182 178.47 173.121 176.318 171C174.197 168.848 173.136 166.273 173.136 163.273C173.136 160.303 174.197 157.758 176.318 155.636C178.47 153.515 181.045 152.455 184.045 152.455C186.955 152.455 189.5 153.515 191.682 155.636C193.864 157.758 194.955 160.303 194.955 163.273C194.955 165.273 194.439 167.106 193.409 168.773C192.409 170.409 191.091 171.727 189.455 172.727C187.818 173.697 186.015 174.182 184.045 174.182Z" fill="#6366F1"/>
</svg>
